 http://www.imdb.com/title/tt0238936/
 
http://en.wikipedia.org/wiki/Devdas_(2002_film)


Format                                   : Matroska
Format version                           : Version 2
File size                                : 3.08 GiB
Duration                                 : 3h 4mn
Overall bit rate                         : 2 385 Kbps


Video
ID                                       : 1
Format                                   : AVC
Format/Info                              : Advanced Video Codec
Format profile                           : High@L4.1
Format settings, CABAC                   : Yes
Format settings, ReFrames                : 4 frames
Muxing mode                              : Header stripping
Codec ID                                 : V_MPEG4/ISO/AVC
Duration                                 : 3h 4mn
Bit rate                                 : 2 000 Kbps
Width                                    : 1 280 pixels
Height                                   : 576 pixels
Display aspect ratio                     : 2.2:1
Original display aspect ratio            : 2.2:1
Frame rate mode                          : Constant
Frame rate                               : 23.976 fps
Stream size                              : 2.52 GiB (82%)


Audio
ID                                       : 2
Format                                   : AC-3
Duration                                 : 3h 4mn
Bit rate mode                            : Constant
Bit rate                                 : 384 Kbps
Channel(s)                               : 6 channels
Channel positions                        : Front: L C R, Side: L R, LFE
Sampling rate                            : 48.0 KHz
Bit depth                                : 16 bits
Stream size                              : 507 MiB (16%)
Language                                 : Hindi

 
http://www.freeimgsharing.com/images/74878714042041767140.png
 
http://www.freeimgsharing.com/images/84191043154521960033.png
 
http://www.freeimgsharing.com/images/23755022822912727474.png
 
http://www.freeimgsharing.com/images/57732384543945903955.png
 
http://www.freeimgsharing.com/images/71632205625662410509.png
 
http://www.freeimgsharing.com/images/89942688767966609995.png
 
http://www.freeimgsharing.com/images/96360212856659300881.png
 
http://www.freeimgsharing.com/images/86705622392508023513.png
 
http://www.freeimgsharing.com/images/87407280713507253272.png
 
http://www.freeimgsharing.com/images/91002754928230148957.png
 
http://www.freeimgsharing.com/images/90687679638390277591.png
